<?xml version="1.0" standalone="no"?>
<!DOCTYPE svg PUBLIC "-//W3C//DTD SVG 20010904//EN"
 "http://www.w3.org/TR/2001/REC-SVG-20010904/DTD/svg10.dtd">
<svg version="1.0" xmlns="http://www.w3.org/2000/svg"
 width="500.000000pt" height="500.000000pt" viewBox="0 0 500.000000 500.000000"
 preserveAspectRatio="xMidYMid meet">

<g transform="translate(0.000000,500.000000) scale(0.100000,-0.100000)"
fill="#000000" stroke="none">
<path d="M1392 3597 l-1102 -1102 1105 -1105 1105 -1105 1105 1105 1105 1105
-1102 1102 c-607 607 -1105 1103 -1108 1103 -3 0 -501 -496 -1108 -1103z
m2203 -7 l1090 -1090 -1093 -1093 -1092 -1092 -1092 1092 -1093 1093 1090
1090 c599 599 1092 1090 1095 1090 3 0 496 -491 1095 -1090z"/>
<path d="M2085 4118 c-226 -226 -396 -403 -380 -393 17 10 39 26 51 36 11 11
26 19 34 19 7 0 10 3 7 7 -8 7 11 33 25 33 5 0 6 -6 2 -12 -4 -8 -3 -10 2 -5
5 5 9 12 9 15 0 12 57 82 66 82 5 0 6 -8 3 -17 -5 -17 -5 -17 6 -1 6 10 18 22
28 28 16 11 16 11 0 6 -24 -7 -23 -3 9 33 29 32 55 44 32 14 -7 -10 0 -7 16 7
17 14 32 27 35 29 3 2 -3 1 -12 -2 -10 -4 -18 -4 -18 -2 0 10 53 60 62 57 5
-1 6 3 2 9 -5 9 -2 10 9 6 9 -3 19 -1 23 5 4 7 3 8 -4 4 -21 -13 -13 2 22 40
18 20 38 34 44 30 6 -3 14 -1 18 5 4 8 3 9 -4 5 -21 -13 -13 2 22 40 18 20 38
34 44 30 6 -3 14 -1 18 5 4 8 3 9 -4 5 -21 -13 -13 2 22 40 18 20 38 34 44 30
6 -3 14 -1 18 5 4 8 3 9 -4 5 -21 -13 -13 2 22 40 18 20 38 34 44 30 6 -3 14
-1 18 5 4 8 3 9 -4 5 -24 -15 -10 6 38 56 42 43 52 49 65 38 8 -7 12 -17 8
-23 -3 -5 -1 -7 4 -4 13 8 47 -29 38 -42 -3 -6 0 -9 7 -6 16 6 82 -61 73 -75
-3 -5 0 -7 7 -5 16 6 82 -61 73 -75 -3 -5 0 -7 7 -5 16 6 82 -61 73 -75 -3 -5
0 -7 8 -4 15 6 80 -64 71 -77 -3 -5 1 -6 9 -4 13 6 74 -53 69 -67 -1 -5 3 -8
9 -8 6 0 7 -5 2 -12 -11 -19 -12 -37 -3 -43 5 -3 12 0 16 6 3 6 1 15 -6 19 -8
5 -8 9 4 13 10 4 21 -3 30 -21 9 -15 15 -23 16 -18 0 6 21 -12 47 -38 44 -46
46 -49 28 -62 -10 -8 -14 -14 -9 -14 6 0 15 5 21 11 7 7 29 -8 74 -51 35 -34
84 -76 109 -92 25 -17 -144 159 -375 391 -231 231 -422 421 -425 421 -3 0
-190 -185 -415 -412z"/>
<path d="M2456 4443 c-6 -14 -5 -15 5 -6 7 7 10 15 7 18 -3 3 -9 -2 -12 -12z"/>
<path d="M2563 4386 c0 -14 33 -14 46 0 3 4 -1 5 -10 1 -9 -3 -21 -1 -26 4 -6
6 -10 4 -10 -5z"/>
<path d="M2376 4363 c-6 -14 -5 -15 5 -6 7 7 10 15 7 18 -3 3 -9 -2 -12 -12z"/>
<path d="M2643 4306 c0 -14 33 -14 46 0 3 4 -1 5 -10 1 -9 -3 -21 -1 -26 4 -6
6 -10 4 -10 -5z"/>
<path d="M2296 4283 c-6 -14 -5 -15 5 -6 7 7 10 15 7 18 -3 3 -9 -2 -12 -12z"/>
<path d="M2723 4226 c0 -14 33 -14 46 0 3 4 -1 5 -10 1 -9 -3 -21 -1 -26 4 -6
6 -10 4 -10 -5z"/>
<path d="M2216 4203 c-6 -14 -5 -15 5 -6 7 7 10 15 7 18 -3 3 -9 -2 -12 -12z"/>
<path d="M2803 4146 c0 -14 33 -14 46 0 3 4 -1 5 -10 1 -9 -3 -21 -1 -26 4 -6
6 -10 4 -10 -5z"/>
<path d="M2131 4117 c-13 -21 -12 -21 5 -5 10 10 16 20 13 22 -3 3 -11 -5 -18
-17z"/>
<path d="M2880 4077 c0 -2 6 -10 14 -16 11 -9 16 -9 22 1 4 7 4 10 -1 6 -4 -4
-14 -3 -22 3 -7 6 -13 9 -13 6z"/>
<path d="M2068 3943 c7 -3 16 -2 19 1 4 3 -2 6 -13 5 -11 0 -14 -3 -6 -6z"/>
<path d="M2818 3933 c7 -3 16 -2 19 1 4 3 -2 6 -13 5 -11 0 -14 -3 -6 -6z"/>
<path d="M2068 3923 c7 -3 16 -2 19 1 4 3 -2 6 -13 5 -11 0 -14 -3 -6 -6z"/>
<path d="M3049 3928 c-6 -22 -5 -39 3 -45 7 -3 8 -1 4 5 -8 13 5 16 20 5 5 -5
2 -1 -8 8 -9 9 -14 19 -11 23 4 3 3 6 0 6 -4 0 -7 -1 -8 -2z"/>
<path d="M2737 3899 c7 -7 15 -10 18 -7 3 3 -2 9 -12 12 -14 6 -15 5 -6 -5z"/>
<path d="M1871 3856 c-9 -10 -8 -15 3 -19 11 -4 13 -1 9 10 -5 12 -3 14 7 8 9
-5 11 -4 6 3 -9 15 -11 15 -25 -2z"/>
<path d="M2905 3840 c-3 -6 1 -7 9 -4 18 7 21 14 7 14 -6 0 -13 -4 -16 -10z"/>
<path d="M3114 3838 c-4 -6 -3 -8 4 -4 5 3 12 1 14 -6 2 -6 12 -12 21 -14 21
-3 13 12 -13 26 -13 7 -21 7 -26 -2z"/>
<path d="M2924 3825 c-10 -8 -14 -15 -8 -15 6 0 17 7 24 15 16 19 9 19 -16 0z"/>
<path d="M2070 3820 c-9 -6 -10 -10 -3 -10 6 0 15 5 18 10 8 12 4 12 -15 0z"/>
<path d="M2700 3826 c0 -2 11 -6 25 -8 13 -3 22 -1 19 3 -5 9 -44 13 -44 5z"/>
<path d="M3005 3820 c-3 -6 1 -7 9 -4 18 7 21 14 7 14 -6 0 -13 -4 -16 -10z"/>
<path d="M2009 3793 c-13 -16 -12 -17 4 -4 9 7 17 15 17 17 0 8 -8 3 -21 -13z"/>
<path d="M3096 3786 c3 -9 13 -16 22 -16 8 0 13 1 11 3 -2 1 -12 9 -22 16 -15
12 -17 12 -11 -3z"/>
<path d="M1902 3764 c-7 -8 -8 -14 -3 -14 10 0 25 19 20 25 -2 1 -10 -3 -17
-11z"/>
<path d="M3002 3761 c-11 -7 -11 -9 0 -14 9 -3 15 1 15 9 0 8 -1 14 -1 14 -1
0 -7 -4 -14 -9z"/>
<path d="M1794 3738 l-19 -23 23 19 c21 18 27 26 19 26 -2 0 -12 -10 -23 -22z"/>
<path d="M3126 3742 c-3 -5 1 -9 9 -9 8 0 12 4 9 9 -3 4 -7 8 -9 8 -2 0 -6 -4
-9 -8z"/>
<path d="M1870 3706 c0 -2 7 -9 15 -16 9 -7 15 -8 15 -2 0 5 -7 12 -15 16 -8
3 -15 4 -15 2z"/>
<path d="M3060 3705 c0 -7 30 -13 34 -7 3 4 -4 9 -15 9 -10 1 -19 0 -19 -2z"/>
<path d="M1714 3678 c-5 -7 -3 -8 6 -3 10 6 12 4 7 -8 -3 -9 -1 -19 5 -23 7
-5 8 -2 3 6 -6 10 -4 12 10 6 18 -7 18 -6 0 14 -21 23 -22 24 -31 8z"/>
<path d="M3268 3673 c7 -3 16 -2 19 1 4 3 -2 6 -13 5 -11 0 -14 -3 -6 -6z"/>
<path d="M3146 3658 c3 -4 12 -4 21 -1 12 5 14 3 8 -7 -5 -9 -4 -11 4 -6 16
10 4 25 -19 23 -10 -1 -17 -5 -14 -9z"/>
<path d="M3310 3666 c0 -2 8 -10 18 -17 15 -13 16 -12 3 4 -13 16 -21 21 -21
13z"/>
<path d="M1557 3582 c-82 -71 -207 -208 -207 -226 0 -6 12 4 26 22 15 18 32
31 40 28 8 -3 11 0 7 10 -5 12 7 19 29 15 5 0 7 5 5 12 -1 6 5 11 13 9 8 -2
12 0 8 3 -14 14 12 45 35 42 12 -2 16 -2 10 0 -7 3 -13 9 -13 15 0 5 7 8 15 4
8 -3 14 0 12 6 -1 7 5 12 13 13 9 0 14 8 12 20 -3 20 -2 20 13 1 8 -11 15 -15
15 -9 0 7 -5 15 -11 19 -7 4 4 21 27 45 56 58 39 47 -49 -29z"/>
<path d="M3245 3630 c10 -11 20 -20 23 -20 3 0 -3 9 -13 20 -10 11 -20 20 -23
20 -3 0 3 -9 13 -20z"/>
<path d="M3280 3640 c-9 -6 -10 -10 -3 -10 6 0 15 5 18 10 8 12 4 12 -15 0z"/>
<path d="M3216 3627 c3 -10 9 -15 12 -12 3 3 0 11 -7 18 -10 9 -11 8 -5 -6z"/>
<path d="M2513 3615 c-45 -31 -49 -151 -6 -186 15 -13 15 -12 3 10 -20 39 -15
129 9 162 25 33 24 35 -6 14z"/>
<path d="M3374 3621 c4 -5 0 -12 -6 -15 -7 -3 -3 -3 8 -1 18 5 21 2 18 -21 -3
-31 -23 -47 -40 -33 -8 7 -14 6 -19 -1 -4 -6 -3 -10 2 -9 19 3 27 -2 15 -10
-11 -7 -11 -9 2 -14 9 -4 15 -3 13 1 -1 4 8 17 20 29 15 15 20 29 16 40 -5 14
0 13 20 -6 20 -18 24 -28 16 -37 -7 -8 -7 -14 1 -19 6 -4 10 -3 9 2 -3 20 2
22 21 6 16 -14 17 -20 7 -32 -10 -14 -10 -14 4 -4 18 14 30 8 23 -12 -3 -7 -1
-16 5 -20 7 -4 8 1 4 12 -5 14 -1 13 20 -6 26 -23 36 -44 20 -38 -5 1 -9 -1
-10 -5 -6 -17 -2 -20 11 -9 11 10 19 8 35 -5 11 -10 18 -21 16 -24 -2 -4 2 -7
10 -7 9 0 5 12 -14 36 -41 51 -208 211 -221 211 -6 0 -9 -4 -6 -9z"/>
<path d="M2318 3607 c6 -6 19 -54 29 -104 15 -78 21 -93 37 -93 14 0 16 3 8
13 -6 7 -19 55 -29 105 -15 77 -21 92 -37 92 -14 0 -16 -3 -8 -13z"/>
<path d="M2619 3606 c23 -28 18 -132 -9 -168 -21 -29 -21 -29 -1 -19 25 14 36
34 45 83 7 40 -11 99 -35 114 -11 6 -11 4 0 -10z"/>
<path d="M1703 3603 c4 -3 1 -13 -6 -22 -11 -14 -10 -14 6 -2 20 15 22 31 5
31 -6 0 -8 -3 -5 -7z"/>
<path d="M2204 3594 c-8 -3 -6 -28 7 -82 11 -42 20 -89 21 -104 1 -16 8 -28
16 -28 8 0 11 7 9 18 -19 65 -38 176 -33 188 5 14 0 16 -20 8z"/>
<path d="M2784 3591 c6 -9 -41 -170 -55 -187 -6 -8 -4 -14 7 -18 21 -8 26 -8
20 2 -3 5 5 40 18 78 36 107 38 121 20 128 -8 3 -13 2 -10 -3z"/>
<path d="M3271 3587 c2 -1 15 -11 28 -22 l24 -20 -14 23 c-8 12 -20 22 -28 22
-8 0 -12 -1 -10 -3z"/>
<path d="M3357 3569 c7 -7 15 -10 18 -7 3 3 -2 9 -12 12 -14 6 -15 5 -6 -5z"/>
<path d="M2867 3556 c13 -24 0 -76 -24 -93 -9 -7 -11 -13 -5 -13 42 0 69 84
35 111 -15 13 -15 12 -6 -5z"/>
<path d="M2055 3514 c9 -9 18 -14 21 -11 9 9 -6 27 -22 27 -13 0 -13 -2 1 -16z"/>
<path d="M1580 3502 c11 -23 12 -23 31 -6 10 9 17 20 13 23 -3 3 -10 -2 -16
-12 -9 -18 -10 -18 -24 0 -14 17 -14 16 -4 -5z"/>
<path d="M3455 3509 c-4 -6 -5 -12 -2 -15 2 -3 7 2 10 11 7 17 1 20 -8 4z"/>
<path d="M2989 3453 c-35 -83 -35 -84 6 -19 20 33 32 63 27 68 -4 4 -19 -17
-33 -49z"/>
<path d="M3410 3501 c-8 -6 -18 -7 -24 -4 -5 3 -6 1 -2 -5 4 -6 14 -8 23 -5
12 5 14 3 8 -8 -5 -8 -4 -11 0 -6 7 6 17 37 12 37 -1 0 -9 -4 -17 -9z"/>
<path d="M1980 3479 c0 -34 25 -55 80 -63 54 -8 70 -21 71 -55 0 -23 1 -24 8
-6 10 24 0 56 -20 67 -8 4 -36 10 -62 13 -42 6 -50 11 -62 38 -14 31 -14 31
-15 6z"/>
<path d="M1555 3461 c-3 -5 -2 -12 3 -15 5 -3 9 1 9 9 0 17 -3 19 -12 6z"/>
<path d="M3434 3462 c-8 -5 -3 -14 15 -26 26 -20 26 -20 8 0 -9 12 -14 24 -10
27 8 9 1 9 -13 -1z"/>
<path d="M3460 3456 c0 -2 8 -10 18 -17 15 -13 16 -12 3 4 -13 16 -21 21 -21
13z"/>
<path d="M1530 3430 c-9 -6 -10 -10 -3 -10 6 0 15 5 18 10 8 12 4 12 -15 0z"/>
<path d="M1470 3395 c-7 -8 -16 -13 -20 -10 -5 3 -6 -5 -2 -17 5 -20 3 -21
-10 -11 -12 10 -15 10 -15 0 0 -7 10 -13 22 -13 17 0 21 5 17 18 -3 12 0 18 8
16 7 -2 14 5 15 15 4 21 1 21 -15 2z"/>
<path d="M3560 3401 c0 -6 4 -13 10 -16 6 -3 7 1 4 9 -7 18 -14 21 -14 7z"/>
<path d="M1391 3376 c-9 -11 -9 -16 1 -22 7 -4 10 -4 6 1 -4 4 0 14 10 21 9 7
12 14 6 14 -6 0 -17 -6 -23 -14z"/>
<path d="M3610 3360 c0 -5 5 -10 11 -10 5 0 7 -4 4 -10 -3 -5 -2 -10 4 -10 19
0 19 16 0 28 -11 7 -19 8 -19 2z"/>
<path d="M2030 3340 c0 -5 9 -14 19 -20 31 -16 37 -12 13 10 -23 22 -32 25
-32 10z"/>
<path d="M3700 3320 c13 -19 39 -53 59 -74 20 -21 29 -35 21 -31 -12 7 -13 6
-2 -6 7 -8 18 -14 25 -14 7 0 11 -11 9 -25 -1 -18 1 -21 7 -11 10 16 35 5 25
-11 -4 -6 -2 -8 3 -5 13 8 36 -17 25 -28 -4 -5 -2 -6 3 -3 12 7 36 -17 27 -27
-4 -4 0 -5 8 -3 8 2 14 -3 12 -10 -1 -8 2 -11 7 -8 10 7 33 -18 26 -27 -3 -4
-2 -5 1 -3 9 7 33 -17 27 -27 -2 -4 1 -6 9 -5 7 2 12 -3 10 -10 -1 -8 2 -11 7
-8 12 8 33 -18 23 -29 -4 -5 -2 -6 3 -3 12 7 36 -17 27 -27 -4 -4 0 -5 8 -3 8
2 14 -3 12 -10 -1 -8 1 -11 6 -8 12 7 63 -50 54 -59 -4 -4 0 -5 8 -3 8 1 14
-3 12 -9 -1 -7 3 -13 9 -13 5 0 7 -4 4 -10 -3 -5 0 -7 9 -4 17 7 40 -31 30
-49 -6 -9 -3 -8 8 1 10 8 19 9 22 3 3 -5 0 -12 -6 -14 -8 -3 -6 -6 5 -6 10 -1
15 -5 12 -11 -3 -5 0 -7 9 -4 9 4 20 -5 29 -23 9 -15 19 -27 24 -26 4 0 7 -3
6 -8 -2 -5 2 -9 8 -9 5 0 7 -4 4 -10 -3 -5 0 -7 9 -4 9 4 20 -5 29 -23 9 -15
19 -27 24 -26 4 0 7 -3 6 -8 -2 -5 2 -9 8 -9 5 0 7 -4 4 -10 -3 -6 1 -7 9 -4
10 4 20 -3 27 -20 7 -14 16 -23 20 -20 4 2 13 -4 19 -15 8 -16 6 -23 -12 -35
-12 -8 -26 -12 -31 -9 -6 4 -7 1 -3 -6 9 -13 -20 -51 -38 -51 -6 0 -4 5 4 11
13 9 13 10 0 6 -8 -2 -14 -11 -12 -21 3 -14 -8 -21 -30 -17 -4 0 -5 -5 -2 -12
7 -19 -52 -68 -73 -61 -15 5 -16 4 -3 -5 14 -10 13 -12 -9 -15 -5 0 -13 -5
-18 -10 -5 -5 -3 -6 5 -2 15 9 16 -6 0 -22 -15 -15 -31 -16 -22 0 4 7 3 8 -4
4 -6 -4 -8 -14 -5 -23 5 -13 2 -15 -11 -10 -9 4 -15 3 -12 -1 8 -14 -25 -54
-40 -48 -8 3 -13 2 -13 -2 4 -25 -3 -33 -23 -27 -15 4 -19 3 -10 -3 20 -14
-49 -85 -74 -76 -13 4 -15 3 -6 -3 20 -15 -48 -86 -74 -77 -13 4 -15 3 -6 -3
10 -7 -3 -26 -52 -76 -60 -63 -95 -89 -65 -49 7 9 2 7 -12 -6 -14 -12 -29 -19
-34 -15 -4 5 -5 2 -1 -5 4 -7 12 -10 17 -7 16 10 10 -5 -10 -26 -12 -13 -25
-18 -32 -14 -7 5 -10 4 -5 -3 3 -6 -4 -22 -16 -35 -13 -14 -38 -47 -57 -73
-19 -27 161 146 400 383 l434 433 -429 427 c-236 236 -418 412 -406 393z"/>
<path d="M1403 3323 c11 -12 14 -24 9 -27 -6 -3 -13 0 -15 6 -4 9 -6 10 -6 1
-1 -18 16 -24 28 -9 8 10 6 17 -12 32 l-22 19 18 -22z"/>
<path d="M2926 3331 c-4 -7 -5 -15 -2 -18 9 -9 19 4 14 18 -4 11 -6 11 -12 0z"/>
<path d="M3595 3329 c-4 -6 -5 -12 -2 -15 2 -3 7 2 10 11 7 17 1 20 -8 4z"/>
<path d="M880 2915 l-415 -415 424 -423 c233 -232 410 -401 393 -376 -17 25
-37 51 -46 58 -9 7 -14 17 -11 21 3 4 -2 13 -10 20 -8 7 -15 9 -15 5 0 -5 -20
11 -44 35 -25 24 -42 48 -40 52 3 4 0 8 -6 8 -16 0 -60 47 -52 55 4 4 0 5 -8
3 -8 -2 -14 3 -13 10 2 6 -2 12 -7 12 -16 0 -60 47 -52 55 4 4 0 5 -8 3 -8 -2
-14 3 -13 10 2 6 -1 12 -7 12 -12 0 -100 81 -100 92 0 5 4 7 9 4 5 -4 8 2 7
11 -2 12 -12 18 -27 18 -29 0 -51 13 -44 26 4 5 1 9 -5 9 -16 0 -60 47 -52 55
4 4 2 5 -3 3 -14 -4 -86 68 -77 78 4 4 2 4 -4 1 -11 -7 -44 26 -44 45 0 6 -3
8 -7 5 -9 -10 -34 14 -26 26 3 5 2 7 -4 4 -5 -3 -25 9 -43 28 -24 24 -29 35
-18 35 8 0 21 7 28 15 7 8 17 12 23 8 6 -4 7 -1 3 6 -6 9 -13 8 -27 -5 -10 -9
-19 -14 -19 -10 0 9 62 63 75 66 6 1 17 8 26 16 9 8 19 11 24 7 4 -5 5 -2 1 5
-4 7 -13 9 -19 6 -7 -4 1 7 17 24 16 17 32 29 36 27 4 -3 15 4 25 15 15 16 21
18 33 7 13 -10 14 -9 7 3 -16 26 -15 48 1 54 9 3 20 4 24 1 5 -3 14 5 20 17
11 22 10 22 -4 4 -9 -11 -16 -16 -16 -10 0 13 91 114 103 114 6 0 -1 -12 -16
-28 -27 -28 -36 -82 -9 -60 9 8 10 14 2 22 -7 7 -2 19 17 38 15 15 23 28 18
28 -4 0 0 9 10 20 14 16 21 18 28 8 6 -9 7 -7 3 6 -7 19 9 46 26 46 6 0 4 -8
-3 -17 -13 -16 -12 -17 3 -4 10 7 16 17 13 21 -2 4 4 15 14 24 10 10 21 14 23
9 3 -4 3 -2 1 6 -4 15 14 41 29 41 6 0 4 -8 -3 -17 -13 -16 -12 -17 3 -4 10 7
16 17 13 21 -2 4 4 15 14 24 10 10 21 14 23 9 3 -4 3 -2 1 6 -4 15 14 41 29
41 6 0 4 -8 -3 -17 -7 -10 0 -6 17 10 17 15 34 24 39 20 4 -5 5 -2 1 5 -6 11
-12 10 -29 -5 l-21 -18 20 26 c10 15 23 24 28 21 5 -3 6 -1 3 5 -4 5 5 20 18
31 14 12 25 19 25 14 0 -4 6 3 13 14 6 12 27 43 45 68 18 25 32 46 30 46 -2 0
-190 -187 -418 -415z m-170 -220 c-13 -14 -26 -23 -28 -20 -4 4 38 44 47 45 3
0 -6 -11 -19 -25z m-90 -89 c0 -3 -4 -8 -10 -11 -5 -3 -10 -1 -10 4 0 6 5 11
10 11 6 0 10 -2 10 -4z m235 -436 c-3 -5 -11 -10 -16 -10 -6 0 -7 5 -4 10 3 6
11 10 16 10 6 0 7 -4 4 -10z"/>
<path d="M1338 3292 c3 -9 1 -13 -5 -9 -5 3 -10 0 -10 -8 0 -17 14 -10 26 14
7 13 6 18 -4 18 -7 0 -11 -7 -7 -15z"/>
<path d="M1380 3269 c0 -5 -4 -8 -9 -4 -5 3 -13 0 -17 -7 -4 -7 -4 -10 1 -6 4
4 15 2 23 -5 13 -10 14 -9 7 2 -6 11 -4 13 10 7 15 -5 16 -4 5 9 -15 18 -20
19 -20 4z"/>
<path d="M1290 3249 c0 -5 5 -7 10 -4 6 3 10 8 10 11 0 2 -4 4 -10 4 -5 0 -10
-5 -10 -11z"/>
<path d="M2400 3244 c-99 -17 -146 -32 -225 -70 -197 -96 -343 -273 -401 -484
-25 -90 -25 -290 0 -380 57 -207 204 -387 392 -480 122 -59 188 -74 334 -74
146 0 212 15 334 74 140 69 266 195 335 335 60 121 75 189 75 335 0 146 -15
214 -75 335 -89 181 -280 339 -473 392 -52 13 -250 25 -296 17z m220 -31 c14
-3 32 -7 41 -8 39 -4 108 -28 103 -36 -3 -5 1 -6 9 -3 8 3 21 -2 30 -10 8 -8
18 -12 23 -8 5 4 2 -2 -6 -12 -14 -18 -14 -19 5 -9 23 13 80 -11 69 -29 -4 -7
-3 -8 4 -4 7 4 12 2 12 -5 0 -7 3 -9 7 -6 8 9 44 -23 38 -34 -3 -4 0 -11 6
-15 8 -4 9 -3 5 4 -33 54 104 -88 146 -151 39 -57 69 -126 70 -159 1 -16 5
-25 11 -21 6 4 8 0 4 -10 -3 -9 -2 -19 3 -22 12 -7 13 -19 13 -190 1 -96 -3
-149 -13 -170 -7 -16 -15 -39 -17 -50 -6 -34 -47 -114 -55 -109 -5 3 -8 2 -7
-3 4 -24 -4 -43 -35 -76 -18 -20 -32 -37 -29 -37 2 0 -2 -7 -11 -15 -8 -8 -22
-12 -30 -9 -9 3 -16 1 -16 -6 0 -6 5 -8 10 -5 18 11 10 -10 -10 -28 -24 -21
-31 -22 -24 -3 3 8 1 17 -4 20 -5 3 -8 -8 -6 -25 2 -17 0 -27 -6 -24 -5 3 -12
0 -17 -7 -4 -7 -19 -22 -33 -33 l-24 -20 17 27 c13 21 14 26 3 22 -8 -3 -17
-15 -20 -27 -6 -26 -61 -61 -79 -51 -6 4 -9 4 -5 -1 10 -11 -42 -37 -60 -30
-8 3 -22 -1 -32 -10 -15 -14 -95 -32 -145 -34 -108 -3 -170 0 -173 9 -2 5 -8
8 -12 5 -12 -7 -91 6 -86 14 2 3 -9 7 -25 8 -36 3 -91 31 -84 43 3 6 -1 7 -9
4 -18 -7 -59 14 -51 26 3 6 -1 7 -9 4 -9 -3 -16 -1 -16 5 0 6 -6 11 -14 11 -8
0 -24 12 -36 28 -12 15 -18 20 -14 12 4 -8 -23 16 -59 54 -37 39 -64 72 -62
75 3 2 -4 11 -16 19 -11 8 -18 20 -15 29 3 8 2 12 -3 9 -12 -8 -55 90 -46 105
5 7 4 10 -3 5 -15 -9 -43 92 -51 188 -7 84 3 224 18 239 5 5 7 16 4 23 -5 12
7 19 29 15 4 0 5 6 1 15 -5 13 -8 13 -15 2 -6 -9 -7 -5 -3 12 12 41 77 162 92
167 7 3 11 9 8 13 -9 15 15 22 31 9 12 -10 13 -9 8 5 -3 9 -10 16 -14 16 -5 0
6 16 23 35 17 19 36 35 43 35 7 0 16 5 20 12 5 7 3 8 -7 3 -8 -5 -5 1 5 13 20
23 42 30 29 10 -14 -23 -12 -37 5 -31 11 5 13 3 7 -8 -5 -8 -4 -11 0 -6 17 15
14 36 -3 29 -14 -5 -15 -3 -5 10 7 8 11 17 8 20 -3 3 2 11 12 19 15 12 16 12
8 -1 -4 -8 4 -2 18 13 15 15 32 25 37 22 6 -3 10 -2 10 3 0 10 102 59 136 65
10 2 28 8 39 13 11 5 50 9 87 9 38 0 68 3 68 6 0 7 103 1 140 -8z"/>
<path d="M2635 3180 c-3 -6 1 -7 9 -4 18 7 21 14 7 14 -6 0 -13 -4 -16 -10z"/>
<path d="M2675 3179 c-11 -16 -1 -19 13 -3 7 8 8 14 3 14 -5 0 -13 -5 -16 -11z"/>
<path d="M2290 3166 c7 -7 13 -7 20 0 6 6 3 10 -10 10 -13 0 -16 -4 -10 -10z"/>
<path d="M2832 3114 c-14 -15 -7 -17 22 -5 15 6 16 9 5 13 -8 3 -20 -1 -27 -8z"/>
<path d="M2980 2960 c0 -5 5 -10 11 -10 5 0 7 5 4 10 -3 6 -8 10 -11 10 -2 0
-4 -4 -4 -10z"/>
<path d="M3040 2946 c0 -3 9 -10 20 -16 11 -6 20 -8 20 -6 0 3 -9 10 -20 16
-11 6 -20 8 -20 6z"/>
<path d="M3024 2900 c0 -13 4 -16 10 -10 7 7 7 13 0 20 -6 6 -10 3 -10 -10z"/>
<path d="M2510 2906 c0 -2 8 -10 18 -17 15 -13 16 -12 3 4 -13 16 -21 21 -21
13z"/>
<path d="M2971 2901 c-8 -5 -9 -11 -3 -15 5 -3 12 1 16 9 6 17 6 18 -13 6z"/>
<path d="M2455 2890 c-3 -5 -1 -10 4 -10 6 0 11 5 11 10 0 6 -2 10 -4 10 -3 0
-8 -4 -11 -10z"/>
<path d="M1894 2878 c-14 -22 -13 -37 3 -31 11 4 12 8 3 13 -9 6 -9 9 1 12 8
3 11 8 8 12 -4 4 -11 1 -15 -6z"/>
<path d="M2086 2853 c-6 -14 -5 -15 5 -6 7 7 10 15 7 18 -3 3 -9 -2 -12 -12z"/>
<path d="M2494 2853 c16 -20 36 -23 36 -6 0 4 -3 3 -7 0 -3 -4 -16 1 -27 10
-21 18 -21 18 -2 -4z"/>
<path d="M3093 2839 c-2 -23 3 -25 10 -4 4 8 3 16 -1 19 -4 3 -9 -4 -9 -15z"/>
<path d="M2375 2789 c-16 -10 -25 -19 -19 -19 7 0 22 9 35 20 30 24 23 24 -16
-1z"/>
<path d="M3129 2793 c-13 -16 -12 -17 4 -4 9 7 17 15 17 17 0 8 -8 3 -21 -13z"/>
<path d="M2940 2786 c0 -2 7 -6 15 -10 8 -3 15 -1 15 4 0 6 -7 10 -15 10 -8 0
-15 -2 -15 -4z"/>
<path d="M2595 2770 c3 -5 8 -10 11 -10 2 0 4 5 4 10 0 6 -5 10 -11 10 -5 0
-7 -4 -4 -10z"/>
<path d="M2724 2734 c-18 -14 -18 -15 4 -4 12 6 22 13 22 15 0 8 -5 6 -26 -11z"/>
<path d="M1823 2685 c0 -8 4 -12 9 -9 5 3 6 10 3 15 -9 13 -12 11 -12 -6z"/>
<path d="M2668 2693 c7 -3 16 -2 19 1 4 3 -2 6 -13 5 -11 0 -14 -3 -6 -6z"/>
<path d="M2346 2658 c15 -21 21 -23 27 -11 5 8 6 17 3 20 -3 4 -6 0 -6 -7 0
-9 -7 -7 -22 6 l-22 19 20 -27z"/>
<path d="M2890 2665 c-10 -12 -7 -13 16 -9 22 4 25 2 16 -9 -9 -10 -9 -14 2
-14 18 0 14 27 -6 38 -10 6 -20 4 -28 -6z"/>
<path d="M2333 2631 c0 -11 5 -18 9 -15 4 3 5 11 1 19 -7 21 -12 19 -10 -4z"/>
<path d="M3026 2595 c-9 -26 -7 -32 5 -12 6 10 9 21 6 23 -2 3 -7 -2 -11 -11z"/>
<path d="M2245 2589 c-4 -6 -5 -12 -2 -15 2 -3 7 2 10 11 7 17 1 20 -8 4z"/>
<path d="M2815 2589 c-4 -5 -4 -13 -1 -16 3 -4 6 0 6 8 0 11 2 11 10 -1 6 -9
10 -10 10 -3 0 17 -17 25 -25 12z"/>
<path d="M2864 2589 c-3 -6 -2 -15 3 -20 5 -5 9 -1 9 11 0 23 -2 24 -12 9z"/>
<path d="M2429 2563 c-13 -16 -12 -17 4 -4 9 7 17 15 17 17 0 8 -8 3 -21 -13z"/>
<path d="M2285 2560 c-3 -5 -1 -10 4 -10 6 0 11 5 11 10 0 6 -2 10 -4 10 -3 0
-8 -4 -11 -10z"/>
<path d="M2974 2549 c-3 -6 -2 -15 3 -20 5 -5 9 -1 9 11 0 23 -2 24 -12 9z"/>
<path d="M2251 2534 c0 -11 3 -14 6 -6 3 7 2 16 -1 19 -3 4 -6 -2 -5 -13z"/>
<path d="M2294 2528 l-19 -23 23 19 c21 18 27 26 19 26 -2 0 -12 -10 -23 -22z"/>
<path d="M2374 2463 c-13 -20 -13 -25 -2 -16 8 7 17 11 19 8 3 -2 5 5 5 15 0
25 0 25 -22 -7z"/>
<path d="M2246 2463 c-6 -14 -5 -15 5 -6 7 7 10 15 7 18 -3 3 -9 -2 -12 -12z"/>
<path d="M2900 2440 c-12 -16 -19 -30 -16 -30 2 0 14 14 26 30 12 17 19 30 16
30 -2 0 -14 -13 -26 -30z"/>
<path d="M1796 2443 c-6 -14 -5 -15 5 -6 7 7 10 15 7 18 -3 3 -9 -2 -12 -12z"/>
<path d="M2164 2428 c-4 -6 -3 -8 4 -4 5 3 12 1 14 -6 3 -8 6 -9 11 -1 4 6 0
13 -8 17 -8 3 -17 0 -21 -6z"/>
<path d="M2941 2424 c0 -11 3 -14 6 -6 3 7 2 16 -1 19 -3 4 -6 -2 -5 -13z"/>
<path d="M2349 2408 c-8 -25 -3 -44 12 -44 16 0 17 2 3 17 -12 14 -13 18 -2
22 10 4 10 6 1 6 -7 1 -13 0 -14 -1z"/>
<path d="M2866 2378 c3 -5 10 -6 15 -3 13 9 11 12 -6 12 -8 0 -12 -4 -9 -9z"/>
<path d="M2946 2373 c-6 -14 -5 -15 5 -6 7 7 10 15 7 18 -3 3 -9 -2 -12 -12z"/>
<path d="M2723 2338 c-15 -20 -25 -38 -20 -38 3 0 12 11 21 25 17 26 16 35 -1
13z"/>
<path d="M1805 2330 c3 -5 8 -10 11 -10 2 0 4 5 4 10 0 6 -5 10 -11 10 -5 0
-7 -4 -4 -10z"/>
<path d="M2816 2322 c-3 -5 1 -15 8 -21 11 -10 14 -9 12 3 -3 21 -13 29 -20
18z"/>
<path d="M2123 2257 c-1 -11 -1 -18 0 -16 2 2 8 11 15 20 9 12 9 16 -1 16 -7
0 -14 -9 -14 -20z"/>
<path d="M2090 2215 c0 -7 30 -13 34 -7 3 4 -4 9 -15 9 -10 1 -19 0 -19 -2z"/>
<path d="M2770 2209 c0 -5 5 -7 10 -4 6 3 10 8 10 11 0 2 -4 4 -10 4 -5 0 -10
-5 -10 -11z"/>
<path d="M2190 2176 c0 -2 8 -10 18 -17 15 -13 16 -12 3 4 -13 16 -21 21 -21
13z"/>
<path d="M2724 2149 c-3 -6 -2 -15 3 -20 5 -5 9 -1 9 11 0 23 -2 24 -12 9z"/>
<path d="M3085 2109 c-4 -6 -5 -12 -2 -15 2 -3 7 2 10 11 7 17 1 20 -8 4z"/>
<path d="M2106 2083 c-6 -14 -5 -15 5 -6 7 7 10 15 7 18 -3 3 -9 -2 -12 -12z"/>
<path d="M2648 2093 c6 -2 9 -10 6 -15 -4 -7 -2 -8 5 -4 13 9 5 26 -12 25 -9
0 -8 -2 1 -6z"/>
<path d="M3058 2083 c6 -2 9 -10 6 -15 -4 -7 -2 -8 5 -4 13 9 5 26 -12 25 -9
0 -8 -2 1 -6z"/>
<path d="M2689 2053 c-13 -16 -12 -17 4 -4 16 13 21 21 13 21 -2 0 -10 -8 -17
-17z"/>
<path d="M2145 1891 c-3 -5 -2 -12 3 -15 5 -3 9 1 9 9 0 17 -3 19 -12 6z"/>
<path d="M3640 3220 c0 -5 5 -10 11 -10 5 0 7 5 4 10 -3 6 -8 10 -11 10 -2 0
-4 -4 -4 -10z"/>
<path d="M1348 3188 c-10 -10 -14 -18 -9 -18 10 0 36 29 30 34 -2 1 -12 -6
-21 -16z"/>
<path d="M3736 3199 c3 -6 0 -15 -7 -20 -10 -6 -8 -8 8 -6 17 1 20 5 12 19 -5
10 -12 18 -15 18 -3 0 -2 -5 2 -11z"/>
<path d="M3651 3158 c5 -10 11 -18 12 -18 2 0 3 8 3 18 0 10 -6 19 -13 19 -8
0 -9 -6 -2 -19z"/>
<path d="M1285 3149 c-9 -13 0 -22 25 -24 19 -2 19 -1 3 17 -19 21 -20 21 -28
7z"/>
<path d="M3680 3106 c0 -2 7 -9 15 -16 13 -11 14 -10 9 4 -5 14 -24 23 -24 12z"/>
<path d="M3736 3073 c-6 -14 -5 -15 5 -6 7 7 10 15 7 18 -3 3 -9 -2 -12 -12z"/>
<path d="M3882 3066 c7 -8 17 -12 22 -9 4 3 2 9 -5 14 -22 13 -31 11 -17 -5z"/>
<path d="M3856 3052 c-3 -5 1 -9 9 -9 8 0 12 4 9 9 -3 4 -7 8 -9 8 -2 0 -6 -4
-9 -8z"/>
<path d="M3800 3041 c0 -6 4 -13 10 -16 6 -3 7 1 4 9 -7 18 -14 21 -14 7z"/>
<path d="M3896 2997 c3 -10 9 -15 12 -12 3 3 0 11 -7 18 -10 9 -11 8 -5 -6z"/>
<path d="M1205 2979 c-4 -6 -5 -12 -2 -15 2 -3 7 2 10 11 7 17 1 20 -8 4z"/>
<path d="M3886 2955 c4 -8 11 -15 16 -15 6 0 5 6 -2 15 -7 8 -14 15 -16 15 -2
0 -1 -7 2 -15z"/>
<path d="M3851 2924 c0 -11 3 -14 6 -6 3 7 2 16 -1 19 -3 4 -6 -2 -5 -13z"/>
<path d="M1040 2925 c0 -5 5 -17 10 -25 5 -8 10 -10 10 -5 0 6 -5 17 -10 25
-5 8 -10 11 -10 5z"/>
<path d="M1136 2914 c-4 -9 -4 -19 -1 -22 2 -3 7 3 11 12 4 9 4 19 1 22 -2 3
-7 -3 -11 -12z"/>
<path d="M1206 2893 c-6 -14 -5 -15 5 -6 7 7 10 15 7 18 -3 3 -9 -2 -12 -12z"/>
<path d="M4094 2859 c-4 -7 -3 -9 4 -5 5 3 13 0 15 -6 4 -9 6 -10 6 -1 1 17
-16 25 -25 12z"/>
<path d="M3871 2814 c0 -11 3 -14 6 -6 3 7 2 16 -1 19 -3 4 -6 -2 -5 -13z"/>
<path d="M4176 2782 c-3 -5 1 -9 9 -9 8 0 12 4 9 9 -3 4 -7 8 -9 8 -2 0 -6 -4
-9 -8z"/>
<path d="M4170 2745 c-7 -9 -8 -15 -2 -15 5 0 12 7 16 15 3 8 4 15 2 15 -2 0
-9 -7 -16 -15z"/>
<path d="M887 2730 c-3 -11 -2 -22 2 -24 4 -3 8 6 9 20 2 29 -4 31 -11 4z"/>
<path d="M956 2727 c3 -10 9 -15 12 -12 3 3 0 11 -7 18 -10 9 -11 8 -5 -6z"/>
<path d="M4214 2731 c4 -5 0 -11 -6 -14 -7 -3 -3 -4 9 -4 17 1 19 4 11 14 -12
15 -22 18 -14 4z"/>
<path d="M930 2720 c0 -5 5 -10 11 -10 5 0 7 5 4 10 -3 6 -8 10 -11 10 -2 0
-4 -4 -4 -10z"/>
<path d="M984 2710 c0 -11 4 -20 8 -20 4 0 8 9 8 20 0 11 -4 20 -8 20 -4 0 -8
-9 -8 -20z"/>
<path d="M4145 2710 c-3 -6 1 -7 9 -4 18 7 21 14 7 14 -6 0 -13 -4 -16 -10z"/>
<path d="M4256 2702 c-3 -5 1 -9 9 -9 8 0 12 4 9 9 -3 4 -7 8 -9 8 -2 0 -6 -4
-9 -8z"/>
<path d="M1025 2681 c-3 -5 -2 -12 3 -15 5 -3 9 1 9 9 0 17 -3 19 -12 6z"/>
<path d="M4133 2668 c-2 -18 0 -20 7 -8 12 18 13 30 2 30 -4 0 -9 -10 -9 -22z"/>
<path d="M899 2643 c-13 -16 -12 -17 4 -4 9 7 17 15 17 17 0 8 -8 3 -21 -13z"/>
<path d="M4336 2622 c-3 -5 1 -9 9 -9 8 0 12 4 9 9 -3 4 -7 8 -9 8 -2 0 -6 -4
-9 -8z"/>
<path d="M736 2608 c3 -5 10 -6 15 -3 13 9 11 12 -6 12 -8 0 -12 -4 -9 -9z"/>
<path d="M1016 2585 c-11 -8 -17 -17 -14 -20 2 -3 13 4 23 15 21 23 18 25 -9
5z"/>
<path d="M4225 2571 c-3 -5 -2 -12 3 -15 5 -3 9 1 9 9 0 17 -3 19 -12 6z"/>
<path d="M730 2559 c0 -6 5 -7 10 -4 13 8 13 -8 0 -21 -7 -7 -6 -11 4 -11 8 0
13 4 10 8 -2 4 0 10 6 14 16 10 12 21 -10 22 -11 1 -20 -3 -20 -8z"/>
<path d="M1006 2538 c3 -5 10 -6 15 -3 13 9 11 12 -6 12 -8 0 -12 -4 -9 -9z"/>
<path d="M4416 2542 c-3 -5 1 -9 9 -9 8 0 12 4 9 9 -3 4 -7 8 -9 8 -2 0 -6 -4
-9 -8z"/>
<path d="M985 2500 c-3 -5 -1 -10 4 -10 6 0 11 5 11 10 0 6 -2 10 -4 10 -3 0
-8 -4 -11 -10z"/>
<path d="M531 2491 c-10 -6 -9 -10 3 -14 8 -3 18 -2 21 3 8 13 -9 20 -24 11z"/>
<path d="M4006 2491 c-4 -5 -2 -12 3 -15 5 -4 12 -2 15 3 4 5 2 12 -3 15 -5 4
-12 2 -15 -3z"/>
<path d="M4205 2470 c-3 -5 -1 -10 4 -10 6 0 11 5 11 10 0 6 -2 10 -4 10 -3 0
-8 -4 -11 -10z"/>
<path d="M4227 2455 c-4 -8 -3 -16 1 -19 4 -3 9 4 9 15 2 23 -3 25 -10 4z"/>
<path d="M4189 2433 c-13 -16 -12 -17 4 -4 16 13 21 21 13 21 -2 0 -10 -8 -17
-17z"/>
<path d="M808 2413 c7 -3 16 -2 19 1 4 3 -2 6 -13 5 -11 0 -14 -3 -6 -6z"/>
<path d="M828 2393 c6 -2 9 -10 6 -15 -4 -7 -2 -8 5 -4 13 9 5 26 -12 25 -9 0
-8 -2 1 -6z"/>
<path d="M1141 2374 c0 -11 3 -14 6 -6 3 7 2 16 -1 19 -3 4 -6 -2 -5 -13z"/>
<path d="M920 2376 c0 -2 7 -7 16 -10 8 -3 12 -2 9 4 -6 10 -25 14 -25 6z"/>
<path d="M700 2340 c-9 -6 -10 -10 -3 -10 6 0 15 5 18 10 8 12 4 12 -15 0z"/>
<path d="M3821 2334 c0 -11 3 -14 6 -6 3 7 2 16 -1 19 -3 4 -6 -2 -5 -13z"/>
<path d="M3970 2330 c0 -5 5 -10 11 -10 5 0 7 5 4 10 -3 6 -8 10 -11 10 -2 0
-4 -4 -4 -10z"/>
<path d="M811 2304 c0 -11 3 -14 6 -6 3 7 2 16 -1 19 -3 4 -6 -2 -5 -13z"/>
<path d="M860 2309 c0 -5 5 -7 10 -4 6 3 10 8 10 11 0 2 -4 4 -10 4 -5 0 -10
-5 -10 -11z"/>
<path d="M830 2276 c0 -8 4 -17 9 -20 5 -4 7 3 4 14 -6 23 -13 26 -13 6z"/>
<path d="M784 2269 c-3 -6 -3 -13 0 -16 3 -4 6 -1 6 5 0 6 7 9 15 6 8 -4 15
-4 15 -1 0 11 -30 16 -36 6z"/>
<path d="M3981 2244 c0 -11 3 -14 6 -6 3 7 2 16 -1 19 -3 4 -6 -2 -5 -13z"/>
<path d="M4180 2250 c-8 -5 -12 -12 -9 -15 4 -3 12 1 19 10 14 17 11 19 -10 5z"/>
<path d="M4060 2220 c-8 -5 -12 -12 -9 -15 4 -3 12 1 19 10 14 17 11 19 -10 5z"/>
<path d="M4131 2207 c-13 -21 -12 -21 5 -5 10 10 16 20 13 22 -3 3 -11 -5 -18
-17z"/>
<path d="M4186 2215 c-9 -26 -7 -32 5 -12 6 10 9 21 6 23 -2 3 -7 -2 -11 -11z"/>
<path d="M886 2207 c3 -10 9 -15 12 -12 3 3 0 11 -7 18 -10 9 -11 8 -5 -6z"/>
<path d="M921 2195 c0 -5 3 -16 8 -23 7 -11 9 -10 14 3 4 9 3 14 -2 10 -5 -3
-12 1 -14 7 -3 7 -6 9 -6 3z"/>
<path d="M3860 2131 c0 -25 6 -27 13 -6 4 8 2 17 -3 20 -6 4 -10 -3 -10 -14z"/>
<path d="M3773 2109 c-2 -23 3 -25 10 -4 4 8 3 16 -1 19 -4 3 -9 -4 -9 -15z"/>
<path d="M4089 2113 c-13 -16 -12 -17 4 -4 9 7 17 15 17 17 0 8 -8 3 -21 -13z"/>
<path d="M945 2109 c-4 -6 -5 -12 -2 -15 2 -3 7 2 10 11 7 17 1 20 -8 4z"/>
<path d="M1220 2101 c0 -6 4 -13 10 -16 6 -3 7 1 4 9 -7 18 -14 21 -14 7z"/>
<path d="M3910 2040 c0 -6 -4 -8 -10 -5 -6 3 -7 -1 -4 -10 4 -9 9 -12 13 -8 3
4 10 11 15 14 4 4 3 10 -3 13 -6 4 -11 2 -11 -4z"/>
<path d="M4009 2033 c-13 -16 -12 -17 4 -4 16 13 21 21 13 21 -2 0 -10 -8 -17
-17z"/>
<path d="M1025 2029 c-4 -6 -5 -12 -2 -15 2 -3 7 2 10 11 7 17 1 20 -8 4z"/>
<path d="M1171 2025 c0 -5 3 -16 8 -23 7 -11 9 -10 14 3 4 9 3 14 -2 10 -5 -3
-12 1 -14 7 -3 7 -6 9 -6 3z"/>
<path d="M3865 1989 c-4 -6 -5 -12 -2 -15 2 -3 7 2 10 11 7 17 1 20 -8 4z"/>
<path d="M3805 1979 c-4 -6 -5 -12 -2 -15 2 -3 7 2 10 11 7 17 1 20 -8 4z"/>
<path d="M1185 1961 c-6 -11 9 -23 19 -14 9 9 7 23 -3 23 -6 0 -12 -4 -16 -9z"/>
<path d="M3896 1939 c-12 -23 -12 -28 -2 -20 12 11 29 51 21 51 -2 0 -10 -14
-19 -31z"/>
<path d="M3929 1953 c-13 -16 -12 -17 4 -4 16 13 21 21 13 21 -2 0 -10 -8 -17
-17z"/>
<path d="M1105 1949 c-4 -6 -5 -12 -2 -15 2 -3 7 2 10 11 7 17 1 20 -8 4z"/>
<path d="M1140 1931 c0 -6 4 -13 10 -16 6 -3 7 1 4 9 -7 18 -14 21 -14 7z"/>
<path d="M3700 1936 c0 -2 8 -10 18 -17 15 -13 16 -12 3 4 -13 16 -21 21 -21
13z"/>
<path d="M3845 1930 c3 -5 8 -10 11 -10 2 0 4 5 4 10 0 6 -5 10 -11 10 -5 0
-7 -4 -4 -10z"/>
<path d="M1213 1892 c10 -10 14 -22 10 -25 -3 -4 -1 -7 5 -7 7 0 12 3 12 8 -1
11 -26 42 -35 42 -5 0 -1 -8 8 -18z"/>
<path d="M1293 1889 c-2 -23 3 -25 10 -4 4 8 3 16 -1 19 -4 3 -9 -4 -9 -15z"/>
<path d="M3693 1895 c-3 -9 -3 -19 1 -22 3 -4 6 2 6 12 0 17 1 17 23 -1 l22
-19 -19 23 c-23 26 -25 27 -33 7z"/>
<path d="M1327 1854 c-3 -4 -1 -16 5 -28 7 -11 11 -25 10 -29 -1 -5 2 -6 8 -2
6 4 4 14 -5 29 -8 12 -12 26 -8 29 3 4 4 7 1 7 -2 0 -8 -3 -11 -6z"/>
<path d="M3735 1849 c-4 -6 -5 -12 -2 -15 2 -3 7 2 10 11 7 17 1 20 -8 4z"/>
<path d="M1260 1830 c0 -5 9 -14 20 -20 11 -6 20 -9 20 -8 0 2 -9 11 -20 21
-11 9 -20 13 -20 7z"/>
<path d="M3679 1823 c0 -5 -2 -15 -4 -23 -2 -11 5 -16 20 -16 12 0 22 6 22 13
0 7 -4 13 -9 13 -4 0 -8 -5 -8 -11 0 -5 -4 -8 -10 -4 -5 3 -7 12 -3 20 3 8 2
15 -1 15 -3 0 -6 -3 -7 -7z"/>
<path d="M1882 1739 c-11 -24 -27 -68 -36 -96 -10 -29 -22 -55 -27 -59 -6 -3
-5 -12 3 -21 10 -13 18 3 50 98 38 114 44 158 10 78z"/>
<path d="M3618 1755 c-25 -34 -22 -43 3 -11 12 15 20 29 18 31 -2 1 -12 -7
-21 -20z"/>
<path d="M1270 1766 c0 -2 8 -10 18 -17 15 -13 16 -12 3 4 -13 16 -21 21 -21
13z"/>
<path d="M3067 1754 c-4 -4 15 -32 41 -63 27 -31 58 -69 69 -84 13 -16 24 -23
28 -17 5 8 -119 170 -130 170 -1 0 -5 -3 -8 -6z"/>
<path d="M1410 1723 c0 -5 10 -18 23 -29 l22 -19 -20 25 c-11 14 -21 27 -22
29 -2 2 -3 0 -3 -6z"/>
<path d="M1323 1705 c0 -8 4 -12 9 -9 5 3 6 10 3 15 -9 13 -12 11 -12 -6z"/>
<path d="M1346 1685 c-9 -26 -7 -32 5 -12 6 10 9 21 6 23 -2 3 -7 -2 -11 -11z"/>
<path d="M3617 1685 c-4 -8 -3 -16 1 -19 4 -3 9 4 9 15 2 23 -3 25 -10 4z"/>
<path d="M2040 1670 c0 -6 -20 -50 -44 -100 -27 -55 -39 -90 -32 -93 6 -2 32
40 58 94 36 76 43 99 32 103 -8 3 -14 1 -14 -4z"/>
<path d="M3281 1664 c0 -11 3 -14 6 -6 3 7 2 16 -1 19 -3 4 -6 -2 -5 -13z"/>
<path d="M3539 1663 c-13 -16 -12 -17 4 -4 9 7 17 15 17 17 0 8 -8 3 -21 -13z"/>
<path d="M1385 1650 c4 -6 1 -17 -5 -25 -10 -12 8 -36 108 -136 67 -66 126
-118 132 -114 6 3 8 11 4 16 -3 5 -10 7 -15 4 -8 -6 -13 9 -10 29 1 5 -5 6
-13 3 -13 -5 -45 20 -38 30 1 1 -1 3 -5 4 -13 1 -33 21 -33 31 0 6 7 8 15 5
19 -8 30 12 16 26 -9 9 -11 8 -6 -3 4 -11 -2 -15 -20 -16 -14 -1 -22 2 -19 7
3 5 0 8 -8 7 -9 -2 -12 6 -11 25 1 15 -3 27 -8 27 -6 0 -7 -4 -4 -10 3 -5 -1
-10 -9 -10 -17 0 -30 16 -19 23 5 2 3 3 -3 1 -7 -1 -21 8 -33 20 -21 22 -20
37 2 32 7 -2 9 -1 5 1 -5 3 -8 11 -8 19 0 8 -5 14 -11 14 -5 0 -7 -5 -4 -10z"/>
<path d="M2880 1640 c-8 -6 -10 -10 -5 -10 6 0 31 -40 55 -90 40 -81 60 -108
60 -80 0 11 -33 79 -72 147 -18 32 -27 40 -38 33z"/>
<path d="M2118 1612 c3 -24 -2 -37 -21 -56 -17 -17 -21 -26 -12 -26 15 0 55
46 55 64 0 7 -6 20 -13 31 -13 16 -14 15 -9 -13z"/>
<path d="M3540 1615 c-7 -9 -11 -17 -8 -20 2 -2 12 4 21 15 9 11 13 20 8 20
-5 0 -14 -7 -21 -15z"/>
<path d="M1505 1614 c2 -4 0 -14 -5 -24 -6 -12 -5 -17 4 -17 13 0 15 32 3 42
-4 3 -5 2 -2 -1z"/>
<path d="M3486 1602 c-3 -6 1 -15 8 -21 8 -7 17 -8 20 -3 3 6 -1 15 -8 21 -8
7 -17 8 -20 3z"/>
<path d="M3600 1601 c0 -7 -5 -9 -12 -5 -7 4 -8 3 -4 -4 4 -7 1 -12 -9 -12
-10 0 -13 5 -9 12 4 7 3 8 -5 4 -8 -5 -9 -12 -2 -20 7 -9 5 -17 -9 -28 -10 -9
-21 -13 -25 -10 -4 4 -5 3 -3 -3 4 -12 -43 -61 -55 -57 -5 1 -6 -2 -2 -7 3 -6
-7 -17 -22 -25 -15 -8 -24 -15 -19 -16 5 0 3 -7 -4 -15 -7 -8 -17 -12 -23 -8
-6 3 -7 1 -3 -5 7 -11 -6 -17 -27 -13 -5 1 -6 -3 -2 -9 8 -13 17 -8 91 57 72
64 159 162 150 170 -3 4 -6 1 -6 -6z"/>
<path d="M2230 1573 c0 -16 -9 -62 -20 -103 -24 -91 -24 -90 -4 -90 8 0 13 3
10 8 -2 4 6 50 19 102 12 52 21 98 18 103 -10 16 -23 5 -23 -20z"/>
<path d="M2764 1574 c9 -8 16 -29 16 -45 0 -18 4 -28 10 -24 25 15 -1 85 -31
85 -6 0 -3 -7 5 -16z"/>
<path d="M2674 1564 c15 -39 46 -186 41 -194 -3 -4 4 -6 15 -3 11 3 17 10 13
17 -4 6 -17 51 -28 100 -12 52 -27 92 -34 94 -10 3 -12 -1 -7 -14z"/>
<path d="M3460 1576 c0 -2 7 -7 16 -10 8 -3 12 -2 9 4 -6 10 -25 14 -25 6z"/>
<path d="M2324 1553 c7 -23 -9 -74 -27 -85 -9 -6 -9 -8 0 -8 34 0 61 88 32
106 -7 4 -9 0 -5 -13z"/>
<path d="M2496 1538 c26 -87 68 -188 76 -188 6 0 8 6 5 13 -2 6 -20 54 -38
104 -19 51 -38 93 -42 93 -5 0 -5 -10 -1 -22z"/>
<path d="M3421 1524 c0 -11 3 -14 6 -6 3 7 2 16 -1 19 -3 4 -6 -2 -5 -13z"/>
<path d="M1595 1510 c-4 -6 -1 -9 7 -8 7 2 12 -3 10 -10 -1 -8 2 -11 8 -7 8 5
7 11 -1 21 -14 17 -16 17 -24 4z"/>
<path d="M2756 1481 c-7 -11 70 -84 84 -79 6 2 -9 22 -34 45 -25 23 -48 38
-50 34z"/>
<path d="M3324 1449 c-5 -8 -3 -9 6 -4 7 4 16 2 22 -6 8 -12 9 -12 6 0 -6 20
-24 25 -34 10z"/>
<path d="M3375 1449 c-4 -6 -5 -12 -2 -15 2 -3 7 2 10 11 7 17 1 20 -8 4z"/>
<path d="M1689 1438 c-7 -23 -4 -35 7 -35 9 0 11 4 4 12 -5 7 -7 15 -3 18 3 4
3 7 0 7 -4 0 -7 -1 -8 -2z"/>
<path d="M1727 1409 c7 -7 15 -10 18 -7 3 3 -2 9 -12 12 -14 6 -15 5 -6 -5z"/>
<path d="M1650 1385 c-9 -10 -9 -15 -1 -15 6 0 11 5 11 11 0 5 5 7 12 3 7 -4
8 -3 4 4 -9 15 -11 15 -26 -3z"/>
<path d="M1775 1370 c-18 -8 -18 -9 -2 -9 12 -1 16 -6 11 -13 -4 -7 -3 -9 1
-5 7 6 17 39 12 36 -1 0 -11 -4 -22 -9z"/>
<path d="M3224 1358 c-10 -13 -13 -18 -5 -11 19 16 52 -16 37 -37 -8 -12 -8
-13 4 -3 20 19 22 43 2 35 -14 -5 -15 -3 -5 10 12 14 8 28 -7 28 -4 0 -15 -10
-26 -22z"/>
<path d="M3297 1365 c-4 -8 -3 -16 1 -19 4 -3 9 4 9 15 2 23 -3 25 -10 4z"/>
<path d="M1823 1347 c0 -7 9 -13 19 -13 10 0 18 1 18 3 0 1 -8 7 -18 12 -13 7
-19 6 -19 -2z"/>
<path d="M3326 1348 c3 -5 10 -6 15 -3 13 9 11 12 -6 12 -8 0 -12 -4 -9 -9z"/>
<path d="M3225 1320 c3 -5 8 -10 11 -10 2 0 4 5 4 10 0 6 -5 10 -11 10 -5 0
-7 -4 -4 -10z"/>
<path d="M3315 1299 c-22 -17 -59 -48 -82 -70 -24 -22 -47 -38 -51 -35 -5 3
-18 -4 -28 -17 l-19 -22 23 19 c29 25 29 6 -1 -22 -25 -24 -43 -29 -31 -10 4
7 3 8 -5 4 -6 -4 -9 -11 -6 -16 7 -11 -214 -232 -226 -225 -5 4 -8 3 -7 -2 5
-15 -60 -86 -71 -78 -6 3 -10 3 -9 -2 2 -5 -11 -26 -29 -47 -29 -35 -34 -38
-50 -25 -16 13 -17 12 -5 -2 11 -14 7 -22 -24 -53 -31 -31 -39 -35 -53 -24
-14 11 -14 11 -4 -2 9 -12 5 -22 -24 -53 -29 -33 -37 -36 -51 -26 -14 11 -15
11 -5 0 9 -11 5 -22 -20 -52 -29 -35 -58 -55 -42 -29 4 6 2 9 -3 8 -13 -4
-673 658 -664 666 4 4 0 6 -8 4 -8 -2 -14 2 -15 7 -1 17 -16 36 -25 30 -4 -3
-13 2 -20 10 -7 8 -35 31 -64 51 -28 20 140 -156 377 -392 l427 -429 432 433
c238 237 431 432 428 431 -3 0 -23 -14 -45 -30z"/>
<path d="M1733 1305 c0 -8 4 -12 9 -9 4 3 8 9 8 15 0 5 -4 9 -8 9 -5 0 -9 -7
-9 -15z"/>
<path d="M3110 1306 c14 -18 13 -19 -5 -12 -16 6 -18 5 -7 -5 8 -9 15 -10 22
-3 8 8 5 15 -7 25 -17 13 -17 13 -3 -5z"/>
<path d="M1912 1286 c-34 -19 -40 -28 -12 -18 14 5 30 7 37 5 6 -2 14 1 18 6
4 7 0 8 -11 4 -12 -4 -15 -3 -10 5 8 14 8 14 -22 -2z"/>
<path d="M3196 1292 c-2 -4 -1 -14 4 -22 7 -11 9 -9 7 8 -1 24 -3 26 -11 14z"/>
<path d="M1797 1275 c-8 -19 12 -30 26 -16 9 9 8 11 -6 5 -13 -5 -16 -2 -11
10 3 9 4 16 1 16 -3 0 -7 -7 -10 -15z"/>
<path d="M3144 1271 c4 -6 3 -18 -3 -25 -8 -9 -7 -13 2 -13 16 0 20 34 5 43
-7 4 -8 2 -4 -5z"/>
<path d="M2890 1225 c-14 -8 -20 -14 -14 -15 5 0 19 7 30 15 24 18 16 19 -16
0z"/>
<path d="M1966 1187 c3 -10 9 -15 12 -12 3 3 0 11 -7 18 -10 9 -11 8 -5 -6z"/>
<path d="M3002 1186 c7 -8 17 -12 22 -9 4 3 2 9 -5 14 -22 13 -31 11 -17 -5z"/>
<path d="M1850 1176 c0 -2 7 -7 16 -10 8 -3 12 -2 9 4 -6 10 -25 14 -25 6z"/>
<path d="M2288 1173 c7 -3 16 -2 19 1 4 3 -2 6 -13 5 -11 0 -14 -3 -6 -6z"/>
<path d="M2145 1160 c-3 -6 1 -7 9 -4 18 7 21 14 7 14 -6 0 -13 -4 -16 -10z"/>
<path d="M1917 1149 c7 -9 11 -18 8 -20 -2 -3 6 -5 20 -4 13 0 27 4 31 8 5 4
0 5 -10 1 -15 -6 -17 -4 -11 6 5 9 4 11 -4 6 -6 -4 -20 -2 -29 6 -15 11 -15
11 -5 -3z"/>
<path d="M1883 1135 c0 -7 6 -11 14 -8 7 3 13 6 13 8 0 2 -6 5 -13 8 -8 3 -14
-1 -14 -8z"/>
<path d="M2158 1123 c7 -3 16 -2 19 1 4 3 -2 6 -13 5 -11 0 -14 -3 -6 -6z"/>
<path d="M2288 1123 c6 -2 18 -2 25 0 6 3 1 5 -13 5 -14 0 -19 -2 -12 -5z"/>
<path d="M1988 1113 c7 -3 16 -2 19 1 4 3 -2 6 -13 5 -11 0 -14 -3 -6 -6z"/>
<path d="M2668 1113 c7 -3 16 -2 19 1 4 3 -2 6 -13 5 -11 0 -14 -3 -6 -6z"/>
<path d="M2715 1110 c-3 -6 1 -7 9 -4 18 7 21 14 7 14 -6 0 -13 -4 -16 -10z"/>
<path d="M3020 1114 c0 -1 8 -8 17 -15 9 -8 14 -9 10 -2 -4 6 -1 13 5 16 7 3
3 4 -9 4 -13 -1 -23 -2 -23 -3z"/>
<path d="M3069 1103 c-13 -16 -12 -17 4 -4 9 7 17 15 17 17 0 8 -8 3 -21 -13z"/>
<path d="M2975 1100 c-4 -6 1 -7 11 -3 12 4 15 3 10 -5 -5 -8 -2 -10 9 -5 13
5 14 7 3 14 -17 11 -26 11 -33 -1z"/>
<path d="M1963 1055 c0 -7 6 -11 14 -8 7 3 13 6 13 8 0 2 -6 5 -13 8 -8 3 -14
-1 -14 -8z"/>
<path d="M2208 1043 c7 -3 16 -2 19 1 4 3 -2 6 -13 5 -11 0 -14 -3 -6 -6z"/>
<path d="M2638 1038 c6 -6 18 -8 28 -6 14 3 12 5 -9 10 -19 3 -25 2 -19 -4z"/>
<path d="M2550 1030 c-9 -6 -10 -10 -3 -10 6 0 15 5 18 10 8 12 4 12 -15 0z"/>
<path d="M2043 975 c0 -7 6 -11 14 -8 7 3 13 6 13 8 0 2 -6 5 -13 8 -8 3 -14
-1 -14 -8z"/>
<path d="M2880 971 c0 -6 4 -13 10 -16 6 -3 7 1 4 9 -7 18 -14 21 -14 7z"/>
<path d="M2123 895 c0 -7 6 -11 14 -8 7 3 13 6 13 8 0 2 -6 5 -13 8 -8 3 -14
-1 -14 -8z"/>
<path d="M2800 891 c0 -6 4 -13 10 -16 6 -3 7 1 4 9 -7 18 -14 21 -14 7z"/>
<path d="M2203 815 c0 -7 6 -11 14 -8 7 3 13 6 13 8 0 2 -6 5 -13 8 -8 3 -14
-1 -14 -8z"/>
<path d="M2720 811 c0 -6 4 -13 10 -16 6 -3 7 1 4 9 -7 18 -14 21 -14 7z"/>
<path d="M2283 735 c0 -7 6 -11 14 -8 7 3 13 6 13 8 0 2 -6 5 -13 8 -8 3 -14
-1 -14 -8z"/>
<path d="M2363 655 c0 -7 6 -11 14 -8 7 3 13 6 13 8 0 2 -6 5 -13 8 -8 3 -14
-1 -14 -8z"/>
<path d="M2443 575 c0 -7 6 -11 14 -8 7 3 13 6 13 8 0 2 -6 5 -13 8 -8 3 -14
-1 -14 -8z"/>
</g>
</svg>
